<mxfile host="app.diagrams.net" modified="2022-02-11T10:12:21.640Z" agent="5.0 (Macintosh; Intel Mac OS X 10_15_7) AppleWebKit/605.1.15 (KHTML, like Gecko) Version/15.2 Safari/605.1.15" etag="qamovfYwcgtsIxNLtoKn" version="16.5.4" type="github">
  <diagram id="Wb4qn38auYq6YkYwxbqw" name="Page-1">
    <mxGraphModel dx="3258" dy="1365" grid="1" gridSize="10" guides="1" tooltips="1" connect="1" arrows="1" fold="1" page="1" pageScale="1" pageWidth="827" pageHeight="1169" math="0" shadow="0">
      <root>
        <mxCell id="0" />
        <mxCell id="1" parent="0" />
        <mxCell id="QFlZebAYQ8ZjHg4JV1y4-32" value="" style="edgeStyle=orthogonalEdgeStyle;rounded=0;orthogonalLoop=1;jettySize=auto;html=1;" edge="1" parent="1" source="QFlZebAYQ8ZjHg4JV1y4-7" target="QFlZebAYQ8ZjHg4JV1y4-8">
          <mxGeometry relative="1" as="geometry" />
        </mxCell>
        <mxCell id="QFlZebAYQ8ZjHg4JV1y4-7" value="开始" style="strokeWidth=2;html=1;shape=mxgraph.flowchart.start_2;whiteSpace=wrap;" vertex="1" parent="1">
          <mxGeometry x="-30" y="260" width="60" height="60" as="geometry" />
        </mxCell>
        <mxCell id="QFlZebAYQ8ZjHg4JV1y4-31" value="" style="edgeStyle=orthogonalEdgeStyle;rounded=0;orthogonalLoop=1;jettySize=auto;html=1;" edge="1" parent="1" source="QFlZebAYQ8ZjHg4JV1y4-8" target="QFlZebAYQ8ZjHg4JV1y4-10">
          <mxGeometry relative="1" as="geometry" />
        </mxCell>
        <mxCell id="QFlZebAYQ8ZjHg4JV1y4-8" value="需求管理" style="rounded=1;whiteSpace=wrap;html=1;absoluteArcSize=1;arcSize=14;strokeWidth=2;" vertex="1" parent="1">
          <mxGeometry x="90" y="260" width="110" height="60" as="geometry" />
        </mxCell>
        <mxCell id="QFlZebAYQ8ZjHg4JV1y4-30" value="" style="edgeStyle=orthogonalEdgeStyle;rounded=0;orthogonalLoop=1;jettySize=auto;html=1;" edge="1" parent="1" source="QFlZebAYQ8ZjHg4JV1y4-10" target="QFlZebAYQ8ZjHg4JV1y4-11">
          <mxGeometry relative="1" as="geometry" />
        </mxCell>
        <mxCell id="QFlZebAYQ8ZjHg4JV1y4-10" value="创建项目" style="rounded=1;whiteSpace=wrap;html=1;absoluteArcSize=1;arcSize=14;strokeWidth=2;fillColor=#dae8fc;strokeColor=#6c8ebf;" vertex="1" parent="1">
          <mxGeometry x="390" y="260" width="110" height="60" as="geometry" />
        </mxCell>
        <mxCell id="QFlZebAYQ8ZjHg4JV1y4-97" style="edgeStyle=orthogonalEdgeStyle;rounded=0;orthogonalLoop=1;jettySize=auto;html=1;exitX=1;exitY=0.5;exitDx=0;exitDy=0;entryX=0;entryY=0.5;entryDx=0;entryDy=0;endArrow=classic;endFill=1;" edge="1" parent="1" source="QFlZebAYQ8ZjHg4JV1y4-11" target="QFlZebAYQ8ZjHg4JV1y4-13">
          <mxGeometry relative="1" as="geometry" />
        </mxCell>
        <mxCell id="QFlZebAYQ8ZjHg4JV1y4-11" value="数据上传&lt;br&gt;（打包）" style="rounded=1;whiteSpace=wrap;html=1;absoluteArcSize=1;arcSize=14;strokeWidth=2;fillColor=#d5e8d4;strokeColor=#82b366;" vertex="1" parent="1">
          <mxGeometry x="750" y="260" width="110" height="60" as="geometry" />
        </mxCell>
        <mxCell id="QFlZebAYQ8ZjHg4JV1y4-26" style="edgeStyle=orthogonalEdgeStyle;rounded=0;orthogonalLoop=1;jettySize=auto;html=1;entryX=0;entryY=0.5;entryDx=0;entryDy=0;" edge="1" parent="1" target="QFlZebAYQ8ZjHg4JV1y4-15">
          <mxGeometry relative="1" as="geometry">
            <mxPoint x="1570" y="290" as="sourcePoint" />
            <Array as="points">
              <mxPoint x="1514" y="290" />
            </Array>
          </mxGeometry>
        </mxCell>
        <mxCell id="QFlZebAYQ8ZjHg4JV1y4-105" value="" style="edgeStyle=orthogonalEdgeStyle;rounded=0;orthogonalLoop=1;jettySize=auto;html=1;endArrow=classic;endFill=1;startArrow=classic;startFill=1;" edge="1" parent="1" source="QFlZebAYQ8ZjHg4JV1y4-13" target="QFlZebAYQ8ZjHg4JV1y4-102">
          <mxGeometry relative="1" as="geometry" />
        </mxCell>
        <mxCell id="QFlZebAYQ8ZjHg4JV1y4-13" value="构建初模" style="rounded=1;whiteSpace=wrap;html=1;absoluteArcSize=1;arcSize=14;strokeWidth=2;fillColor=#fff2cc;strokeColor=#d6b656;" vertex="1" parent="1">
          <mxGeometry x="1459" y="260" width="110" height="60" as="geometry" />
        </mxCell>
        <mxCell id="QFlZebAYQ8ZjHg4JV1y4-28" value="" style="edgeStyle=orthogonalEdgeStyle;rounded=0;orthogonalLoop=1;jettySize=auto;html=1;entryX=0;entryY=0.5;entryDx=0;entryDy=0;" edge="1" parent="1" source="QFlZebAYQ8ZjHg4JV1y4-15" target="QFlZebAYQ8ZjHg4JV1y4-17">
          <mxGeometry relative="1" as="geometry" />
        </mxCell>
        <mxCell id="QFlZebAYQ8ZjHg4JV1y4-110" value="" style="edgeStyle=orthogonalEdgeStyle;rounded=0;orthogonalLoop=1;jettySize=auto;html=1;startArrow=classic;startFill=1;endArrow=classic;endFill=1;" edge="1" parent="1" source="QFlZebAYQ8ZjHg4JV1y4-15" target="QFlZebAYQ8ZjHg4JV1y4-16">
          <mxGeometry relative="1" as="geometry" />
        </mxCell>
        <mxCell id="QFlZebAYQ8ZjHg4JV1y4-15" value="下载OBJ" style="rounded=1;whiteSpace=wrap;html=1;absoluteArcSize=1;arcSize=14;strokeWidth=2;" vertex="1" parent="1">
          <mxGeometry x="1629" y="260" width="110" height="60" as="geometry" />
        </mxCell>
        <mxCell id="QFlZebAYQ8ZjHg4JV1y4-16" value="算法处理&lt;br&gt;修复后高模(BC)" style="rounded=1;whiteSpace=wrap;html=1;absoluteArcSize=1;arcSize=14;strokeWidth=2;" vertex="1" parent="1">
          <mxGeometry x="1629" y="150" width="110" height="60" as="geometry" />
        </mxCell>
        <mxCell id="QFlZebAYQ8ZjHg4JV1y4-20" value="" style="edgeStyle=orthogonalEdgeStyle;rounded=0;orthogonalLoop=1;jettySize=auto;html=1;" edge="1" parent="1" source="QFlZebAYQ8ZjHg4JV1y4-17" target="QFlZebAYQ8ZjHg4JV1y4-19">
          <mxGeometry relative="1" as="geometry" />
        </mxCell>
        <mxCell id="QFlZebAYQ8ZjHg4JV1y4-17" value="后处理(FC)" style="rounded=1;whiteSpace=wrap;html=1;absoluteArcSize=1;arcSize=14;strokeWidth=2;fillColor=#ffe6cc;strokeColor=#d79b00;" vertex="1" parent="1">
          <mxGeometry x="1799" y="260" width="110" height="60" as="geometry" />
        </mxCell>
        <mxCell id="QFlZebAYQ8ZjHg4JV1y4-39" value="" style="edgeStyle=orthogonalEdgeStyle;rounded=0;orthogonalLoop=1;jettySize=auto;html=1;" edge="1" parent="1" source="QFlZebAYQ8ZjHg4JV1y4-19" target="QFlZebAYQ8ZjHg4JV1y4-38">
          <mxGeometry relative="1" as="geometry" />
        </mxCell>
        <mxCell id="QFlZebAYQ8ZjHg4JV1y4-19" value="前端展示&lt;br&gt;（tide引擎）" style="rounded=1;whiteSpace=wrap;html=1;absoluteArcSize=1;arcSize=14;strokeWidth=2;" vertex="1" parent="1">
          <mxGeometry x="1969" y="260" width="110" height="60" as="geometry" />
        </mxCell>
        <mxCell id="QFlZebAYQ8ZjHg4JV1y4-38" value="发布完成" style="strokeWidth=2;html=1;shape=mxgraph.flowchart.terminator;whiteSpace=wrap;" vertex="1" parent="1">
          <mxGeometry x="2139" y="260" width="100" height="60" as="geometry" />
        </mxCell>
        <mxCell id="QFlZebAYQ8ZjHg4JV1y4-45" style="edgeStyle=orthogonalEdgeStyle;rounded=0;orthogonalLoop=1;jettySize=auto;html=1;entryX=0;entryY=0.5;entryDx=0;entryDy=0;" edge="1" parent="1" source="QFlZebAYQ8ZjHg4JV1y4-40" target="QFlZebAYQ8ZjHg4JV1y4-44">
          <mxGeometry relative="1" as="geometry" />
        </mxCell>
        <mxCell id="QFlZebAYQ8ZjHg4JV1y4-40" value="开始" style="strokeWidth=2;html=1;shape=mxgraph.flowchart.start_2;whiteSpace=wrap;" vertex="1" parent="1">
          <mxGeometry x="-30" y="807.5" width="60" height="60" as="geometry" />
        </mxCell>
        <mxCell id="QFlZebAYQ8ZjHg4JV1y4-52" value="" style="edgeStyle=orthogonalEdgeStyle;rounded=0;orthogonalLoop=1;jettySize=auto;html=1;" edge="1" parent="1" source="QFlZebAYQ8ZjHg4JV1y4-44" target="QFlZebAYQ8ZjHg4JV1y4-46">
          <mxGeometry relative="1" as="geometry" />
        </mxCell>
        <mxCell id="QFlZebAYQ8ZjHg4JV1y4-44" value="创建项目&lt;br&gt;（文件夹）" style="rounded=1;whiteSpace=wrap;html=1;absoluteArcSize=1;arcSize=14;strokeWidth=2;fillColor=#dae8fc;strokeColor=#6c8ebf;" vertex="1" parent="1">
          <mxGeometry x="250" y="807.5" width="110" height="60" as="geometry" />
        </mxCell>
        <mxCell id="QFlZebAYQ8ZjHg4JV1y4-80" value="" style="edgeStyle=orthogonalEdgeStyle;rounded=0;orthogonalLoop=1;jettySize=auto;html=1;endArrow=classic;endFill=1;" edge="1" parent="1" source="QFlZebAYQ8ZjHg4JV1y4-46" target="QFlZebAYQ8ZjHg4JV1y4-47">
          <mxGeometry relative="1" as="geometry" />
        </mxCell>
        <UserObject label="创建主场景&lt;br&gt;（例：一套房屋）" id="QFlZebAYQ8ZjHg4JV1y4-46">
          <mxCell style="rounded=1;whiteSpace=wrap;html=1;absoluteArcSize=1;arcSize=14;strokeWidth=2;fillColor=#dae8fc;strokeColor=#6c8ebf;" vertex="1" parent="1">
            <mxGeometry x="390" y="807.5" width="110" height="60" as="geometry" />
          </mxCell>
        </UserObject>
        <mxCell id="QFlZebAYQ8ZjHg4JV1y4-50" value="" style="edgeStyle=orthogonalEdgeStyle;rounded=0;orthogonalLoop=1;jettySize=auto;html=1;entryX=0;entryY=0.5;entryDx=0;entryDy=0;" edge="1" parent="1" source="QFlZebAYQ8ZjHg4JV1y4-47" target="QFlZebAYQ8ZjHg4JV1y4-130">
          <mxGeometry relative="1" as="geometry">
            <mxPoint x="970" y="838" as="targetPoint" />
          </mxGeometry>
        </mxCell>
        <mxCell id="QFlZebAYQ8ZjHg4JV1y4-47" value="创建子场景&lt;br&gt;（全景图片/全景视频）" style="rounded=1;whiteSpace=wrap;html=1;absoluteArcSize=1;arcSize=14;strokeWidth=2;fillColor=#dae8fc;strokeColor=#6c8ebf;" vertex="1" parent="1">
          <mxGeometry x="530" y="807.5" width="130" height="60" as="geometry" />
        </mxCell>
        <mxCell id="QFlZebAYQ8ZjHg4JV1y4-115" value="" style="edgeStyle=orthogonalEdgeStyle;rounded=0;orthogonalLoop=1;jettySize=auto;html=1;startArrow=none;startFill=0;endArrow=classic;endFill=1;" edge="1" parent="1" source="QFlZebAYQ8ZjHg4JV1y4-53" target="QFlZebAYQ8ZjHg4JV1y4-59">
          <mxGeometry relative="1" as="geometry" />
        </mxCell>
        <mxCell id="QFlZebAYQ8ZjHg4JV1y4-118" style="edgeStyle=orthogonalEdgeStyle;rounded=0;orthogonalLoop=1;jettySize=auto;html=1;entryX=0;entryY=0.5;entryDx=0;entryDy=0;startArrow=none;startFill=0;endArrow=classic;endFill=1;exitX=0.5;exitY=1;exitDx=0;exitDy=0;" edge="1" parent="1" source="QFlZebAYQ8ZjHg4JV1y4-53" target="QFlZebAYQ8ZjHg4JV1y4-106">
          <mxGeometry relative="1" as="geometry" />
        </mxCell>
        <mxCell id="QFlZebAYQ8ZjHg4JV1y4-53" value="预处理" style="rounded=1;whiteSpace=wrap;html=1;absoluteArcSize=1;arcSize=14;strokeWidth=2;" vertex="1" parent="1">
          <mxGeometry x="1150" y="632.5" width="110" height="60" as="geometry" />
        </mxCell>
        <mxCell id="QFlZebAYQ8ZjHg4JV1y4-55" value="图片缩放&lt;br&gt;墙线检测&lt;br&gt;垂直矫正&lt;br&gt;切图&lt;br&gt;" style="strokeWidth=2;html=1;shape=mxgraph.flowchart.annotation_1;align=left;pointerEvents=1;" vertex="1" parent="1">
          <mxGeometry x="1230" y="710" width="30" height="80" as="geometry" />
        </mxCell>
        <mxCell id="QFlZebAYQ8ZjHg4JV1y4-63" value="" style="edgeStyle=orthogonalEdgeStyle;rounded=0;orthogonalLoop=1;jettySize=auto;html=1;endArrow=classic;endFill=1;" edge="1" parent="1" source="QFlZebAYQ8ZjHg4JV1y4-59" target="QFlZebAYQ8ZjHg4JV1y4-62">
          <mxGeometry relative="1" as="geometry" />
        </mxCell>
        <mxCell id="QFlZebAYQ8ZjHg4JV1y4-59" value="用户标注" style="verticalLabelPosition=middle;verticalAlign=middle;html=1;shape=trapezoid;perimeter=trapezoidPerimeter;whiteSpace=wrap;size=0.23;arcSize=10;flipV=1;labelPosition=center;align=center;" vertex="1" parent="1">
          <mxGeometry x="1320" y="632.5" width="100" height="60" as="geometry" />
        </mxCell>
        <mxCell id="QFlZebAYQ8ZjHg4JV1y4-68" value="" style="edgeStyle=orthogonalEdgeStyle;rounded=0;orthogonalLoop=1;jettySize=auto;html=1;endArrow=classic;endFill=1;" edge="1" parent="1" source="QFlZebAYQ8ZjHg4JV1y4-62" target="QFlZebAYQ8ZjHg4JV1y4-67">
          <mxGeometry relative="1" as="geometry" />
        </mxCell>
        <mxCell id="QFlZebAYQ8ZjHg4JV1y4-107" value="" style="edgeStyle=orthogonalEdgeStyle;rounded=0;orthogonalLoop=1;jettySize=auto;html=1;startArrow=classic;startFill=1;endArrow=classic;endFill=1;entryX=1;entryY=0.5;entryDx=0;entryDy=0;exitX=0.5;exitY=1;exitDx=0;exitDy=0;" edge="1" parent="1" source="QFlZebAYQ8ZjHg4JV1y4-62" target="QFlZebAYQ8ZjHg4JV1y4-106">
          <mxGeometry relative="1" as="geometry" />
        </mxCell>
        <mxCell id="QFlZebAYQ8ZjHg4JV1y4-62" value="构建模型" style="rounded=1;whiteSpace=wrap;html=1;absoluteArcSize=1;arcSize=14;strokeWidth=2;fillColor=#fff2cc;strokeColor=#d6b656;" vertex="1" parent="1">
          <mxGeometry x="1470" y="632.5" width="110" height="60" as="geometry" />
        </mxCell>
        <mxCell id="QFlZebAYQ8ZjHg4JV1y4-71" value="" style="edgeStyle=orthogonalEdgeStyle;rounded=0;orthogonalLoop=1;jettySize=auto;html=1;endArrow=classic;endFill=1;" edge="1" parent="1" source="QFlZebAYQ8ZjHg4JV1y4-67" target="QFlZebAYQ8ZjHg4JV1y4-70">
          <mxGeometry relative="1" as="geometry" />
        </mxCell>
        <mxCell id="QFlZebAYQ8ZjHg4JV1y4-67" value="后处理&lt;br&gt;（模型格式转换）" style="rounded=1;whiteSpace=wrap;html=1;absoluteArcSize=1;arcSize=14;strokeWidth=2;fillColor=#ffe6cc;strokeColor=#d79b00;" vertex="1" parent="1">
          <mxGeometry x="1799" y="632.5" width="110" height="60" as="geometry" />
        </mxCell>
        <mxCell id="QFlZebAYQ8ZjHg4JV1y4-69" value="发布完成" style="strokeWidth=2;html=1;shape=mxgraph.flowchart.terminator;whiteSpace=wrap;" vertex="1" parent="1">
          <mxGeometry x="2139" y="807.5" width="100" height="60" as="geometry" />
        </mxCell>
        <mxCell id="QFlZebAYQ8ZjHg4JV1y4-72" value="" style="edgeStyle=orthogonalEdgeStyle;rounded=0;orthogonalLoop=1;jettySize=auto;html=1;endArrow=classic;endFill=1;entryX=0;entryY=0.5;entryDx=0;entryDy=0;entryPerimeter=0;" edge="1" parent="1" source="QFlZebAYQ8ZjHg4JV1y4-70" target="QFlZebAYQ8ZjHg4JV1y4-69">
          <mxGeometry relative="1" as="geometry">
            <Array as="points">
              <mxPoint x="2100" y="663" />
              <mxPoint x="2100" y="838" />
            </Array>
          </mxGeometry>
        </mxCell>
        <mxCell id="QFlZebAYQ8ZjHg4JV1y4-70" value="前端展示&lt;br&gt;（淘系引擎）" style="rounded=1;whiteSpace=wrap;html=1;absoluteArcSize=1;arcSize=14;strokeWidth=2;" vertex="1" parent="1">
          <mxGeometry x="1969" y="632.5" width="101" height="60" as="geometry" />
        </mxCell>
        <mxCell id="QFlZebAYQ8ZjHg4JV1y4-83" value="3D场景" style="edgeStyle=orthogonalEdgeStyle;rounded=0;orthogonalLoop=1;jettySize=auto;html=1;exitX=0.5;exitY=0;exitDx=0;exitDy=0;exitPerimeter=0;endArrow=classic;endFill=1;entryX=0;entryY=0.5;entryDx=0;entryDy=0;" edge="1" parent="1" source="QFlZebAYQ8ZjHg4JV1y4-81" target="QFlZebAYQ8ZjHg4JV1y4-53">
          <mxGeometry x="-0.4542" y="-3" relative="1" as="geometry">
            <mxPoint x="1140" y="640" as="targetPoint" />
            <Array as="points">
              <mxPoint x="1020" y="663" />
            </Array>
            <mxPoint as="offset" />
          </mxGeometry>
        </mxCell>
        <mxCell id="QFlZebAYQ8ZjHg4JV1y4-88" value="" style="edgeStyle=orthogonalEdgeStyle;rounded=0;orthogonalLoop=1;jettySize=auto;html=1;endArrow=classic;endFill=1;exitX=1;exitY=0.5;exitDx=0;exitDy=0;exitPerimeter=0;entryX=0;entryY=0.5;entryDx=0;entryDy=0;" edge="1" parent="1" source="QFlZebAYQ8ZjHg4JV1y4-81" target="QFlZebAYQ8ZjHg4JV1y4-116">
          <mxGeometry relative="1" as="geometry">
            <mxPoint x="1020" y="910" as="targetPoint" />
            <Array as="points">
              <mxPoint x="1135" y="838" />
              <mxPoint x="1135" y="838" />
            </Array>
          </mxGeometry>
        </mxCell>
        <mxCell id="QFlZebAYQ8ZjHg4JV1y4-92" value="全景图片" style="edgeLabel;html=1;align=center;verticalAlign=middle;resizable=0;points=[];" vertex="1" connectable="0" parent="QFlZebAYQ8ZjHg4JV1y4-88">
          <mxGeometry x="-0.1259" relative="1" as="geometry">
            <mxPoint as="offset" />
          </mxGeometry>
        </mxCell>
        <mxCell id="QFlZebAYQ8ZjHg4JV1y4-122" style="edgeStyle=orthogonalEdgeStyle;rounded=0;orthogonalLoop=1;jettySize=auto;html=1;exitX=0.5;exitY=1;exitDx=0;exitDy=0;exitPerimeter=0;entryX=0;entryY=0.5;entryDx=0;entryDy=0;startArrow=none;startFill=0;endArrow=classic;endFill=1;" edge="1" parent="1" source="QFlZebAYQ8ZjHg4JV1y4-81" target="QFlZebAYQ8ZjHg4JV1y4-121">
          <mxGeometry relative="1" as="geometry" />
        </mxCell>
        <mxCell id="QFlZebAYQ8ZjHg4JV1y4-81" value="主场景类型" style="strokeWidth=2;html=1;shape=mxgraph.flowchart.decision;whiteSpace=wrap;" vertex="1" parent="1">
          <mxGeometry x="970" y="787.5" width="100" height="100" as="geometry" />
        </mxCell>
        <mxCell id="QFlZebAYQ8ZjHg4JV1y4-98" value="" style="edgeStyle=orthogonalEdgeStyle;rounded=0;orthogonalLoop=1;jettySize=auto;html=1;endArrow=classic;endFill=1;" edge="1" parent="1" source="QFlZebAYQ8ZjHg4JV1y4-85" target="QFlZebAYQ8ZjHg4JV1y4-67">
          <mxGeometry relative="1" as="geometry" />
        </mxCell>
        <mxCell id="QFlZebAYQ8ZjHg4JV1y4-85" value="OBJ格式模型&lt;br&gt;拍摄点位信息" style="strokeWidth=2;html=1;shape=mxgraph.flowchart.multi-document;whiteSpace=wrap;" vertex="1" parent="1">
          <mxGeometry x="1799" y="530" width="110" height="75" as="geometry" />
        </mxCell>
        <mxCell id="QFlZebAYQ8ZjHg4JV1y4-99" value="" style="edgeStyle=orthogonalEdgeStyle;rounded=0;orthogonalLoop=1;jettySize=auto;html=1;endArrow=classic;endFill=1;" edge="1" parent="1" source="QFlZebAYQ8ZjHg4JV1y4-86" target="QFlZebAYQ8ZjHg4JV1y4-93">
          <mxGeometry relative="1" as="geometry" />
        </mxCell>
        <mxCell id="QFlZebAYQ8ZjHg4JV1y4-86" value="发布全景图" style="rounded=1;whiteSpace=wrap;html=1;absoluteArcSize=1;arcSize=14;strokeWidth=2;" vertex="1" parent="1">
          <mxGeometry x="1799" y="807.5" width="110" height="60" as="geometry" />
        </mxCell>
        <mxCell id="QFlZebAYQ8ZjHg4JV1y4-94" style="edgeStyle=orthogonalEdgeStyle;rounded=0;orthogonalLoop=1;jettySize=auto;html=1;exitX=1;exitY=0.5;exitDx=0;exitDy=0;endArrow=classic;endFill=1;entryX=0;entryY=0.5;entryDx=0;entryDy=0;entryPerimeter=0;" edge="1" parent="1" source="QFlZebAYQ8ZjHg4JV1y4-93" target="QFlZebAYQ8ZjHg4JV1y4-69">
          <mxGeometry relative="1" as="geometry">
            <mxPoint x="2130" y="757.5" as="targetPoint" />
            <Array as="points">
              <mxPoint x="2120" y="838" />
              <mxPoint x="2120" y="838" />
            </Array>
          </mxGeometry>
        </mxCell>
        <mxCell id="QFlZebAYQ8ZjHg4JV1y4-93" value="前端展示" style="rounded=1;whiteSpace=wrap;html=1;absoluteArcSize=1;arcSize=14;strokeWidth=2;" vertex="1" parent="1">
          <mxGeometry x="1960" y="807.5" width="110" height="60" as="geometry" />
        </mxCell>
        <mxCell id="QFlZebAYQ8ZjHg4JV1y4-100" value="" style="endArrow=none;dashed=1;html=1;dashPattern=1 3;strokeWidth=2;rounded=0;" edge="1" parent="1">
          <mxGeometry width="50" height="50" relative="1" as="geometry">
            <mxPoint x="10" y="510" as="sourcePoint" />
            <mxPoint x="2410" y="510" as="targetPoint" />
          </mxGeometry>
        </mxCell>
        <mxCell id="QFlZebAYQ8ZjHg4JV1y4-102" value="算法服务（BC）" style="rounded=1;whiteSpace=wrap;html=1;absoluteArcSize=1;arcSize=14;strokeWidth=2;" vertex="1" parent="1">
          <mxGeometry x="1459" y="150" width="110" height="60" as="geometry" />
        </mxCell>
        <mxCell id="QFlZebAYQ8ZjHg4JV1y4-106" value="算法服务（EAS）" style="rounded=1;whiteSpace=wrap;html=1;absoluteArcSize=1;arcSize=14;strokeWidth=2;" vertex="1" parent="1">
          <mxGeometry x="1310" y="720" width="110" height="60" as="geometry" />
        </mxCell>
        <mxCell id="QFlZebAYQ8ZjHg4JV1y4-111" value="" style="edgeStyle=orthogonalEdgeStyle;rounded=0;orthogonalLoop=1;jettySize=auto;html=1;startArrow=none;startFill=0;endArrow=classic;endFill=1;" edge="1" parent="1" source="QFlZebAYQ8ZjHg4JV1y4-109" target="QFlZebAYQ8ZjHg4JV1y4-15">
          <mxGeometry relative="1" as="geometry" />
        </mxCell>
        <mxCell id="QFlZebAYQ8ZjHg4JV1y4-109" value="&lt;span&gt;高模修复&lt;/span&gt;" style="verticalLabelPosition=middle;verticalAlign=middle;html=1;shape=trapezoid;perimeter=trapezoidPerimeter;whiteSpace=wrap;size=0.23;arcSize=10;flipV=1;labelPosition=center;align=center;" vertex="1" parent="1">
          <mxGeometry x="1634" y="370" width="100" height="60" as="geometry" />
        </mxCell>
        <mxCell id="QFlZebAYQ8ZjHg4JV1y4-117" value="" style="edgeStyle=orthogonalEdgeStyle;rounded=0;orthogonalLoop=1;jettySize=auto;html=1;startArrow=none;startFill=0;endArrow=classic;endFill=1;" edge="1" parent="1" source="QFlZebAYQ8ZjHg4JV1y4-116" target="QFlZebAYQ8ZjHg4JV1y4-86">
          <mxGeometry relative="1" as="geometry" />
        </mxCell>
        <mxCell id="QFlZebAYQ8ZjHg4JV1y4-119" style="edgeStyle=orthogonalEdgeStyle;rounded=0;orthogonalLoop=1;jettySize=auto;html=1;exitX=0.5;exitY=0;exitDx=0;exitDy=0;startArrow=none;startFill=0;endArrow=classic;endFill=1;" edge="1" parent="1" source="QFlZebAYQ8ZjHg4JV1y4-116">
          <mxGeometry relative="1" as="geometry">
            <mxPoint x="1310" y="750" as="targetPoint" />
            <Array as="points">
              <mxPoint x="1205" y="750" />
            </Array>
          </mxGeometry>
        </mxCell>
        <mxCell id="QFlZebAYQ8ZjHg4JV1y4-116" value="预处理" style="rounded=1;whiteSpace=wrap;html=1;absoluteArcSize=1;arcSize=14;strokeWidth=2;" vertex="1" parent="1">
          <mxGeometry x="1150" y="807.5" width="110" height="60" as="geometry" />
        </mxCell>
        <mxCell id="QFlZebAYQ8ZjHg4JV1y4-125" value="" style="edgeStyle=orthogonalEdgeStyle;rounded=0;orthogonalLoop=1;jettySize=auto;html=1;startArrow=none;startFill=0;endArrow=classic;endFill=1;" edge="1" parent="1" source="QFlZebAYQ8ZjHg4JV1y4-121" target="QFlZebAYQ8ZjHg4JV1y4-123">
          <mxGeometry relative="1" as="geometry" />
        </mxCell>
        <mxCell id="QFlZebAYQ8ZjHg4JV1y4-121" value="发布全景视频" style="rounded=1;whiteSpace=wrap;html=1;absoluteArcSize=1;arcSize=14;strokeWidth=2;" vertex="1" parent="1">
          <mxGeometry x="1799" y="980" width="110" height="60" as="geometry" />
        </mxCell>
        <mxCell id="QFlZebAYQ8ZjHg4JV1y4-126" style="edgeStyle=orthogonalEdgeStyle;rounded=0;orthogonalLoop=1;jettySize=auto;html=1;entryX=0;entryY=0.5;entryDx=0;entryDy=0;entryPerimeter=0;startArrow=none;startFill=0;endArrow=classic;endFill=1;" edge="1" parent="1" source="QFlZebAYQ8ZjHg4JV1y4-123" target="QFlZebAYQ8ZjHg4JV1y4-69">
          <mxGeometry relative="1" as="geometry">
            <Array as="points">
              <mxPoint x="2100" y="1010" />
              <mxPoint x="2100" y="838" />
            </Array>
          </mxGeometry>
        </mxCell>
        <UserObject label="前端展示" id="QFlZebAYQ8ZjHg4JV1y4-123">
          <mxCell style="rounded=1;whiteSpace=wrap;html=1;absoluteArcSize=1;arcSize=14;strokeWidth=2;" vertex="1" parent="1">
            <mxGeometry x="1958" y="980" width="110" height="60" as="geometry" />
          </mxCell>
        </UserObject>
        <UserObject label="" link="https://lyj-public.oss-cn-hangzhou.aliyuncs.com/static/image/project.jpg" id="QFlZebAYQ8ZjHg4JV1y4-128">
          <mxCell style="sketch=0;outlineConnect=0;fontColor=#232F3E;gradientColor=none;fillColor=#D45B07;strokeColor=none;dashed=0;verticalLabelPosition=bottom;verticalAlign=top;align=center;html=1;fontSize=12;fontStyle=0;aspect=fixed;pointerEvents=1;shape=mxgraph.aws4.container_registry_image;" vertex="1" parent="1">
            <mxGeometry x="421" y="887.5" width="48" height="48" as="geometry" />
          </mxCell>
        </UserObject>
        <UserObject label="" link="http://preview-lyj.aliyuncs.com/preview/1d0d935a4d344fb2b2f19fdd65fdc8f3?Lang=zh-CN" id="QFlZebAYQ8ZjHg4JV1y4-129">
          <mxCell style="sketch=0;outlineConnect=0;fontColor=#232F3E;gradientColor=none;fillColor=#D45B07;strokeColor=none;dashed=0;verticalLabelPosition=bottom;verticalAlign=top;align=center;html=1;fontSize=12;fontStyle=0;aspect=fixed;pointerEvents=1;shape=mxgraph.aws4.container_registry_image;" vertex="1" parent="1">
            <mxGeometry x="1989" y="900" width="48" height="48" as="geometry" />
          </mxCell>
        </UserObject>
        <mxCell id="QFlZebAYQ8ZjHg4JV1y4-131" value="" style="edgeStyle=orthogonalEdgeStyle;rounded=0;orthogonalLoop=1;jettySize=auto;html=1;startArrow=none;startFill=0;endArrow=classic;endFill=1;" edge="1" parent="1" source="QFlZebAYQ8ZjHg4JV1y4-130" target="QFlZebAYQ8ZjHg4JV1y4-81">
          <mxGeometry relative="1" as="geometry" />
        </mxCell>
        <mxCell id="QFlZebAYQ8ZjHg4JV1y4-130" value="数据上传&lt;br&gt;（单文件）" style="rounded=1;whiteSpace=wrap;html=1;absoluteArcSize=1;arcSize=14;strokeWidth=2;fillColor=#d5e8d4;strokeColor=#82b366;" vertex="1" parent="1">
          <mxGeometry x="730" y="807.5" width="130" height="60" as="geometry" />
        </mxCell>
      </root>
    </mxGraphModel>
  </diagram>
</mxfile>
